<svg version="1.1" xmlns="http://www.w3.org/2000/svg" viewBox="0 0 142.0085786160248 184.25763143135305" width="142.0085786160248" height="184.25763143135305"><!-- svg-source:excalidraw --><metadata></metadata><defs><style class="style-fonts">
      </style></defs><rect x="0" y="0" width="142.0085786160248" height="184.25763143135305" fill="#ffffff"></rect><g transform="translate(44.719465652638746 17.554395416908164) rotate(0 20.15151848419964 78.35161800722244)" stroke="none"><path fill="#1e1e1e" d="M 2.49,0.82 Q 2.49,0.82 0.39,7.80 -1.71,14.79 -4.10,21.74 -6.50,28.70 -9.03,35.46 -11.57,42.22 -14.32,49.52 -17.07,56.83 -18.57,61.51 -20.06,66.19 -20.13,68.32 -20.20,70.44 -20.37,70.81 -20.54,71.17 -20.79,71.49 -21.04,71.80 -21.36,72.05 -21.68,72.29 -22.04,72.45 -22.41,72.61 -22.81,72.68 -23.20,72.75 -23.60,72.72 -24.01,72.69 -24.39,72.57 -24.77,72.44 -25.11,72.23 -25.45,72.02 -25.73,71.73 -26.01,71.45 -26.22,71.10 -26.42,70.76 -26.54,70.37 -26.65,69.99 -26.67,69.59 -26.69,69.18 -26.62,68.79 -26.54,68.40 -22.88,65.61 -19.22,62.82 -15.03,59.63 -10.84,56.45 -5.48,52.36 -0.13,48.27 5.96,43.94 12.06,39.61 18.36,35.81 24.66,32.01 30.90,29.43 37.14,26.85 44.49,26.31 51.85,25.77 57.34,27.31 62.82,28.84 66.77,32.10 70.72,35.36 73.24,40.77 75.75,46.17 76.64,50.99 77.53,55.80 77.48,60.83 77.43,65.85 76.65,71.11 75.88,76.37 74.61,81.55 73.34,86.74 71.71,91.72 70.08,96.69 66.75,103.12 63.43,109.54 59.44,115.21 55.45,120.89 50.72,126.22 45.99,131.56 38.16,137.86 30.33,144.15 22.59,148.55 14.85,152.94 7.09,155.50 -0.67,158.06 -8.14,158.56 -15.61,159.07 -21.69,157.23 -27.76,155.40 -31.57,153.59 -35.38,151.78 -35.77,151.60 -36.15,151.43 -36.47,151.14 -36.78,150.86 -36.99,150.48 -37.19,150.11 -37.27,149.69 -37.34,149.28 -37.28,148.86 -37.22,148.43 -37.02,148.06 -36.83,147.68 -36.53,147.38 -36.22,147.08 -35.84,146.90 -35.46,146.71 -35.04,146.66 -34.61,146.61 -34.20,146.69 -33.78,146.78 -33.41,146.99 -33.05,147.21 -32.77,147.53 -32.49,147.84 -32.32,148.24 -32.16,148.63 -32.13,149.05 -32.10,149.48 -32.21,149.89 -32.31,150.30 -32.55,150.66 -32.78,151.01 -33.11,151.27 -33.45,151.54 -33.85,151.68 -34.25,151.82 -34.67,151.83 -35.10,151.83 -35.50,151.70 -35.91,151.57 -36.25,151.32 -36.59,151.07 -36.84,150.72 -37.08,150.37 -37.20,149.97 -37.32,149.56 -37.30,149.13 -37.29,148.71 -37.14,148.31 -36.99,147.92 -36.72,147.59 -36.45,147.26 -36.09,147.03 -35.72,146.81 -35.31,146.71 -34.90,146.61 -34.47,146.65 -34.05,146.69 -34.05,146.69 -34.05,146.69 -29.84,146.97 -25.64,147.24 -20.87,148.24 -16.11,149.23 -9.91,148.81 -3.70,148.39 3.13,146.25 9.98,144.12 17.10,140.22 24.22,136.33 31.58,130.71 38.94,125.08 43.47,120.29 48.01,115.49 51.80,110.42 55.58,105.36 58.72,99.62 61.86,93.89 63.48,89.27 65.10,84.65 66.35,79.87 67.60,75.09 68.37,70.37 69.14,65.65 69.29,61.39 69.45,57.12 68.89,53.19 68.32,49.26 66.80,45.15 65.28,41.04 62.78,38.63 60.29,36.22 56.22,34.88 52.15,33.54 46.06,33.80 39.96,34.07 34.31,36.38 28.66,38.70 22.61,42.32 16.55,45.95 10.55,50.20 4.54,54.45 -0.89,58.53 -6.33,62.61 -10.95,65.89 -15.57,69.17 -17.89,69.81 -20.20,70.44 -20.37,70.81 -20.54,71.17 -20.79,71.49 -21.04,71.80 -21.36,72.04 -21.68,72.29 -22.04,72.45 -22.41,72.61 -22.81,72.68 -23.20,72.75 -23.60,72.72 -24.00,72.69 -24.39,72.57 -24.77,72.44 -25.11,72.23 -25.45,72.02 -25.73,71.73 -26.01,71.45 -26.22,71.10 -26.42,70.76 -26.54,70.37 -26.65,69.99 -26.67,69.59 -26.69,69.18 -26.62,68.79 -26.54,68.40 -26.39,66.32 -26.24,64.25 -24.66,59.40 -23.07,54.55 -20.30,47.26 -17.52,39.96 -14.96,33.28 -12.41,26.61 -9.91,19.76 -7.41,12.90 -4.95,6.04 -2.49,-0.82 -2.36,-1.10 -2.22,-1.39 -2.02,-1.64 -1.82,-1.88 -1.57,-2.07 -1.32,-2.26 -1.03,-2.39 -0.74,-2.52 -0.42,-2.57 -0.11,-2.62 0.19,-2.59 0.51,-2.57 0.81,-2.47 1.11,-2.37 1.38,-2.20 1.65,-2.04 1.87,-1.81 2.09,-1.58 2.25,-1.31 2.41,-1.03 2.50,-0.73 2.59,-0.43 2.60,-0.11 2.61,0.20 2.55,0.51 2.49,0.82 2.49,0.82 L 2.49,0.82 Z"></path></g><g transform="translate(51.20848096555028 10.621564179872166) rotate(0 40.40004882523726 2.9776642975928667)" stroke="none"><path fill="#1e1e1e" d="M -0.01,-2.62 Q -0.01,-2.62 4.98,-3.27 9.98,-3.93 16.62,-3.37 23.26,-2.82 31.31,-1.95 39.37,-1.09 51.35,0.00 63.33,1.10 72.17,2.53 81.02,3.95 81.43,4.06 81.84,4.16 82.20,4.39 82.56,4.62 82.82,4.96 83.09,5.29 83.23,5.69 83.38,6.09 83.39,6.51 83.40,6.94 83.27,7.34 83.14,7.75 82.89,8.09 82.65,8.44 82.30,8.68 81.95,8.93 81.55,9.05 81.14,9.18 80.72,9.16 80.29,9.15 79.89,9.00 79.49,8.85 79.16,8.59 78.83,8.32 78.61,7.96 78.38,7.60 78.28,7.19 78.18,6.78 78.21,6.35 78.25,5.93 78.42,5.54 78.59,5.15 78.87,4.83 79.16,4.52 79.53,4.31 79.90,4.10 80.32,4.02 80.73,3.95 81.15,4.00 81.58,4.06 81.96,4.25 82.34,4.44 82.63,4.75 82.93,5.05 83.12,5.43 83.31,5.81 83.36,6.23 83.42,6.65 83.34,7.07 83.26,7.49 83.05,7.86 82.84,8.23 82.52,8.51 82.20,8.79 81.81,8.96 81.42,9.12 81.00,9.16 80.57,9.19 80.57,9.19 80.57,9.19 71.61,9.10 62.66,9.02 50.55,8.07 38.44,7.13 30.46,6.18 22.47,5.23 16.24,4.53 10.02,3.83 5.01,3.23 0.01,2.62 -0.30,2.58 -0.61,2.55 -0.91,2.44 -1.20,2.33 -1.47,2.15 -1.73,1.97 -1.94,1.73 -2.15,1.50 -2.30,1.22 -2.45,0.94 -2.52,0.63 -2.60,0.32 -2.60,0.01 -2.60,-0.30 -2.53,-0.61 -2.46,-0.91 -2.31,-1.20 -2.16,-1.48 -1.96,-1.71 -1.75,-1.95 -1.49,-2.13 -1.23,-2.31 -0.93,-2.43 -0.64,-2.54 -0.32,-2.58 -0.01,-2.62 -0.01,-2.62 L -0.01,-2.62 Z"></path></g></svg>