<svg version="1.1" xmlns="http://www.w3.org/2000/svg" viewBox="0 0 97.03839480631427 163.13898420039982" width="97.03839480631427" height="163.13898420039982"><!-- svg-source:excalidraw --><metadata></metadata><defs><style class="style-fonts">
      </style></defs><rect x="0" y="0" width="97.03839480631427" height="163.13898420039982" fill="#ffffff"></rect><g transform="translate(74.49073578000662 10) rotate(0 -25.97153837684948 71.56949210019991)" stroke="none"><path fill="#1e1e1e" d="M 0.18,2.61 Q 0.18,2.61 -2.85,2.97 -5.89,3.33 -9.59,4.13 -13.30,4.93 -18.29,7.30 -23.27,9.68 -27.51,12.83 -31.74,15.98 -35.33,19.93 -38.92,23.88 -41.60,28.45 -44.29,33.02 -45.80,37.64 -47.32,42.26 -46.42,46.37 -45.51,50.48 -42.39,52.16 -39.27,53.84 -34.04,53.20 -28.80,52.56 -20.80,48.39 -12.80,44.23 -7.16,39.72 -1.52,35.21 1.51,31.15 4.56,27.09 5.51,24.04 6.46,20.98 4.94,19.03 3.43,17.07 2.65,16.72 1.87,16.38 1.47,16.12 1.08,15.85 0.75,15.51 0.43,15.16 0.20,14.74 -0.02,14.32 -0.15,13.86 -0.27,13.40 -0.28,12.93 -0.29,12.45 -0.19,11.99 -0.09,11.52 0.11,11.09 0.33,10.67 0.63,10.30 0.94,9.94 1.33,9.66 1.71,9.38 2.15,9.20 2.60,9.02 3.07,8.95 3.54,8.89 4.01,8.93 4.49,8.98 4.94,9.14 5.39,9.30 2.74,10.15 0.10,11.01 0.12,10.93 0.13,10.86 0.33,10.43 0.53,10.00 0.83,9.62 1.12,9.25 1.50,8.96 1.88,8.67 2.31,8.48 2.75,8.28 3.22,8.20 3.69,8.12 4.16,8.15 4.64,8.18 5.09,8.33 5.55,8.47 5.95,8.72 6.36,8.97 6.69,9.31 7.03,9.65 7.27,10.06 7.51,10.47 7.65,10.92 7.79,11.38 7.82,11.86 7.84,12.33 7.75,12.80 7.66,13.27 7.43,15.60 7.19,17.94 7.59,22.49 7.98,27.04 7.87,31.00 7.76,34.96 6.97,41.28 6.17,47.60 5.31,53.48 4.44,59.36 3.57,65.15 2.70,70.93 1.25,78.11 -0.19,85.29 -1.93,91.38 -3.68,97.47 -5.83,102.72 -7.97,107.97 -10.38,112.44 -12.78,116.91 -15.31,120.64 -17.83,124.38 -20.51,127.39 -23.20,130.41 -26.94,133.21 -30.69,136.02 -34.20,137.93 -37.72,139.84 -41.02,141.34 -44.32,142.84 -47.89,144.18 -51.46,145.51 -53.99,146.18 -56.53,146.85 -59.20,146.47 -61.86,146.10 -64.14,142.93 -66.41,139.77 -66.64,139.41 -66.88,139.06 -66.99,138.65 -67.10,138.24 -67.07,137.81 -67.05,137.39 -66.89,137.00 -66.72,136.60 -66.45,136.28 -66.17,135.96 -65.80,135.75 -65.44,135.53 -65.02,135.44 -64.60,135.35 -64.18,135.40 -63.76,135.45 -63.38,135.64 -62.99,135.82 -62.69,136.11 -62.38,136.41 -62.18,136.78 -61.99,137.16 -61.92,137.58 -61.86,138.00 -61.93,138.42 -62.00,138.84 -62.21,139.21 -62.41,139.59 -62.72,139.88 -63.03,140.17 -63.42,140.34 -63.81,140.51 -64.23,140.56 -64.65,140.60 -65.07,140.50 -65.48,140.41 -65.84,140.19 -66.20,139.96 -66.48,139.64 -66.75,139.31 -66.90,138.92 -67.06,138.52 -67.08,138.09 -67.09,137.67 -66.98,137.26 -66.86,136.85 -66.62,136.50 -66.38,136.15 -66.04,135.90 -65.69,135.65 -65.29,135.51 -64.89,135.38 -64.46,135.39 -64.04,135.39 -63.64,135.53 -63.23,135.67 -62.90,135.93 -62.56,136.19 -62.56,136.19 -62.56,136.19 -61.09,137.05 -59.62,137.90 -57.18,137.24 -54.74,136.57 -51.43,135.38 -48.13,134.19 -45.05,132.88 -41.97,131.57 -38.91,130.09 -35.84,128.61 -32.65,126.57 -29.45,124.53 -27.04,122.08 -24.64,119.63 -22.27,116.33 -19.90,113.03 -17.66,108.97 -15.42,104.90 -13.41,100.07 -11.40,95.23 -9.71,89.47 -8.03,83.70 -6.61,76.72 -5.19,69.73 -4.30,63.97 -3.42,58.20 -2.56,52.40 -1.70,46.60 -0.93,40.65 -0.16,34.70 -0.03,31.12 0.10,27.55 -0.06,24.91 -0.23,22.27 -0.45,20.06 -0.66,17.84 -0.26,14.35 0.13,10.86 0.33,10.43 0.53,10.00 0.83,9.62 1.12,9.25 1.50,8.96 1.88,8.67 2.31,8.48 2.75,8.28 3.22,8.20 3.69,8.12 4.16,8.15 4.64,8.18 5.09,8.33 5.55,8.47 5.95,8.72 6.36,8.97 6.69,9.31 7.03,9.65 7.27,10.06 7.51,10.47 7.65,10.92 7.79,11.38 7.82,11.86 7.84,12.33 7.75,12.80 7.66,13.27 7.49,13.80 7.32,14.32 4.60,15.35 1.87,16.38 1.47,16.12 1.08,15.85 0.75,15.51 0.43,15.16 0.20,14.74 -0.02,14.32 -0.15,13.86 -0.27,13.40 -0.28,12.93 -0.29,12.45 -0.19,11.99 -0.09,11.52 0.11,11.09 0.33,10.67 0.63,10.30 0.94,9.94 1.33,9.66 1.71,9.38 2.15,9.20 2.60,9.02 3.07,8.95 3.54,8.89 4.01,8.93 4.49,8.98 4.94,9.14 5.39,9.30 6.14,9.64 6.90,9.98 8.76,11.08 10.63,12.19 12.06,14.43 13.50,16.67 13.60,19.99 13.70,23.32 12.05,27.44 10.40,31.56 6.60,36.15 2.80,40.75 -3.49,45.46 -9.80,50.18 -18.96,54.59 -28.12,59.01 -35.06,59.29 -41.99,59.58 -46.58,56.36 -51.17,53.15 -52.47,46.89 -53.77,40.63 -51.95,35.11 -50.12,29.59 -47.02,24.46 -43.92,19.32 -39.84,14.93 -35.75,10.53 -30.90,7.04 -26.04,3.54 -20.24,1.13 -14.45,-1.28 -10.38,-1.86 -6.31,-2.44 -3.25,-2.53 -0.18,-2.61 0.12,-2.60 0.44,-2.58 0.74,-2.49 1.04,-2.40 1.32,-2.24 1.59,-2.08 1.82,-1.86 2.04,-1.64 2.21,-1.37 2.38,-1.10 2.48,-0.80 2.57,-0.50 2.60,-0.18 2.62,0.12 2.57,0.43 2.51,0.75 2.39,1.04 2.26,1.33 2.07,1.58 1.87,1.83 1.63,2.03 1.38,2.23 1.09,2.36 0.81,2.49 0.49,2.55 0.18,2.61 0.18,2.61 L 0.18,2.61 Z"></path></g></svg>